<svg xmlns="http://www.w3.org/2000/svg" viewBox="0 0 100 100" fill="#ffffff">
  <path d="M65.9 41.9c1.4-3.1-0.8-14.7-2.6-17.3 1.7-0.6 5.2-4.3-10.6-12.5C36.9 3.8 17.7 7.2 6.8 21.9c-11 14.7 5.9 34.9 8.5 40.8 2.6 5.9 2.5 8.6 2.5 8.6L13 92h37.5c0.4-1 1.2-7.6 1.7-10.9 2.5 0.4 6.9 0.6 11.6 0.8 4.7 0.2 3.1-5.5 4-8.9 -8-0.3-10.7-2.3-13.1-6.2 2.5 2.4 11.1 1.1 12.2 1 1.1-0.1 0.9-1.8 0-3.5 -1-1.7 3-4.8 5.5-6.1C75 56.9 64.9 45.7 65.9 41.9z"/>
  <path d="M85.5 37.3l-3.9 3.9c6.3 6.3 9.8 14.7 9.8 23.6s-3.5 17.3-9.8 23.6l3.9 3.9c7.4-7.4 11.4-17.1 11.4-27.5C96.9 54.4 92.9 44.6 85.5 37.3z"/>
  <path d="M79 43.3l-3.8 3.8c9.8 9.8 9.8 25.7 0 35.4l3.8 3.8c5.7-5.7 8.9-13.4 8.9-21.5S84.7 49 79 43.3z"/>
</svg>
